<svg xmlns="http://www.w3.org/2000/svg" viewBox="0 0 89.55 16.76"><title>Recurso 1</title><g id="Capa_2" data-name="Capa 2"><g id="Capa_1-2" data-name="Capa 1"><path d="M9.41,9.78c0,2-1.88,3.41-4.66,3.41-3,0-4.75-1.35-4.75-3.74H1.6c0,1.43,1.14,2.3,3.28,2.3,1.81,0,2.91-.72,2.89-2,0-3.57-7.44-1-7.44-6C.33,1.66,2.14.33,4.84.33S9.26,1.68,9.25,4H7.64c0-1.53-1.12-2.21-2.85-2.21C2.84,1.77,2,2.47,2,3.7,2,7.11,9.41,4.57,9.41,9.78Z"/><path d="M20,8.45c0,2.78-1.69,4.72-4.21,4.72a3.26,3.26,0,0,1-3-1.47v5.06H11.16V4.05h1.58l0,1.51A3.46,3.46,0,0,1,15.86,4C18.3,4,20,5.71,20,8.45Zm-1.66,0c0-1.91-1-3.15-2.63-3.15a2.91,2.91,0,0,0-2.89,3v.41a2.88,2.88,0,0,0,2.85,3C17.25,11.79,18.3,10.44,18.3,8.49Z"/><path d="M30,8.55a4.31,4.31,0,0,1-4.47,4.62A4.23,4.23,0,0,1,21.1,8.66,4.37,4.37,0,0,1,25.56,4,4.27,4.27,0,0,1,30,8.55Zm-7.27,0c0,1.9,1.12,3.19,2.8,3.19s2.82-1.29,2.82-3.19-1.11-3.26-2.82-3.26S22.76,6.69,22.76,8.6Z"/><path d="M36.74,13a4,4,0,0,1-1.42.22C33.22,13.17,32,12,32,10.11V5.45H30.6V4.05h1.46V1.36h1.53V4.05h2.93V5.41H33.59v4.7c0,.9.42,1.64,1.89,1.64a2.81,2.81,0,0,0,1.18-.22Z"/><path d="M38.78,2.21A1.09,1.09,0,0,1,37.66,1.1a1.12,1.12,0,0,1,2.24,0A1.09,1.09,0,0,1,38.78,2.21Zm-.87,1.84h1.64v9H37.91Z"/><path d="M44.8,1.9H40.66V.44h9.91V1.9H46.42V13.08H44.8Z"/><path d="M54.47,4l0,1.61a1.42,1.42,0,0,0-.61-.08c-1.14,0-2.21,1-2.21,2.78v4.76H50v-9h1.53l0,1.46A2.54,2.54,0,0,1,54,4,3.93,3.93,0,0,1,54.47,4Z"/><path d="M63.82,13a3.6,3.6,0,0,1-1,.15,1.59,1.59,0,0,1-1.67-1.47A3.47,3.47,0,0,1,58,13.17c-2.05,0-3.06-1-3.06-2.45,0-2,1.81-2.76,4.31-2.76h1.9V7.37c0-1.26-.78-2-2.23-2-1.29,0-2.08.61-2.19,1.7H55.09C55.24,5.08,56.77,4,59,4c2.38,0,3.74,1.27,3.74,3.44v3.69c0,.38.22.61.51.61a1,1,0,0,0,.46-.1ZM61.1,9.76V9.13h-2c-1.7,0-2.56.52-2.56,1.52,0,.75.51,1.21,1.73,1.21A2.61,2.61,0,0,0,61.1,9.76Z"/><path d="M64.54,8.6C64.54,5.89,66.29,4,68.85,4a3.64,3.64,0,0,1,4,3.39H71.1a2.15,2.15,0,0,0-2.23-2c-1.62,0-2.67,1.27-2.67,3.22s1,3.23,2.63,3.23a2.17,2.17,0,0,0,2.27-2h1.73a3.73,3.73,0,0,1-4.07,3.34C66,13.17,64.54,11.25,64.54,8.6Z"/><path d="M77.36,9,76,10.52v2.56H74.39V0H76V8.34L79.9,4.05h2L78.41,7.92l3.88,5.16H80.4Z"/><path d="M89.55,10.63c0,1.49-1.29,2.54-3.61,2.54-2.49,0-3.56-1-3.59-2.75l1.49,0c.09.87.64,1.35,2.12,1.35s2-.48,2-1.16c0-2.1-5.36-.61-5.36-4.13C82.59,5,83.86,4,86.05,4s3.29,1,3.37,2.74H87.91c-.08-.89-.76-1.35-1.9-1.35s-1.82.44-1.82,1.16C84.19,8.56,89.55,7,89.55,10.63Z"/></g></g></svg>